<svg width="19" height="19" viewBox="0 0 19 19" fill="none" xmlns="http://www.w3.org/2000/svg">
<g clip-path="url(#clip0_1_310)">
<path d="M2.375 0.395844H16.625M2.375 18.6042H16.625M4.35417 18.6042V13.8542L6.61517 12.4973C7.13279 12.1867 7.56117 11.7475 7.85859 11.2222C8.15601 10.697 8.31233 10.1036 8.31233 9.50001C8.31233 8.89639 8.15601 8.30307 7.85859 7.77781C7.56117 7.25256 7.13279 6.81328 6.61517 6.50276L4.35417 5.14584V0.395844M14.6458 0.395844V5.14584L12.3848 6.50276C11.8674 6.81343 11.4392 7.25276 11.1419 7.778C10.8447 8.30323 10.6884 8.89648 10.6884 9.50001C10.6884 10.1035 10.8447 10.6968 11.1419 11.222C11.4392 11.7473 11.8674 12.1866 12.3848 12.4973L14.6458 13.8542V18.6042" stroke="black" stroke-width="3"/>
</g>
<defs>
<clipPath id="clip0_1_310">
<rect width="19" height="19" fill="white"/>
</clipPath>
</defs>
</svg>
