<svg width="17" height="17" viewBox="0 0 17 17" fill="none" xmlns="http://www.w3.org/2000/svg">
<g clip-path="url(#clip0_1_176)">
<path fill-rule="evenodd" clip-rule="evenodd" d="M0.708333 8.49999C0.708333 4.19687 4.19687 0.708328 8.5 0.708328C12.8031 0.708328 16.2917 4.19687 16.2917 8.49999C16.2917 12.8031 12.8031 16.2917 8.5 16.2917C4.19687 16.2917 0.708333 12.8031 0.708333 8.49999ZM4.95833 9.91666C4.95833 9.7288 5.03296 9.54863 5.1658 9.41579C5.29864 9.28296 5.4788 9.20833 5.66667 9.20833H11.3333C11.5212 9.20833 11.7014 9.28296 11.8342 9.41579C11.967 9.54863 12.0417 9.7288 12.0417 9.91666C12.0417 10.1045 11.967 10.2847 11.8342 10.4175C11.7014 10.5504 11.5212 10.625 11.3333 10.625H5.66667C5.4788 10.625 5.29864 10.5504 5.1658 10.4175C5.03296 10.2847 4.95833 10.1045 4.95833 9.91666ZM5.66667 6.37499C5.4788 6.37499 5.29864 6.44962 5.1658 6.58246C5.03296 6.7153 4.95833 6.89547 4.95833 7.08333C4.95833 7.27119 5.03296 7.45136 5.1658 7.5842C5.29864 7.71703 5.4788 7.79166 5.66667 7.79166H11.3333C11.5212 7.79166 11.7014 7.71703 11.8342 7.5842C11.967 7.45136 12.0417 7.27119 12.0417 7.08333C12.0417 6.89547 11.967 6.7153 11.8342 6.58246C11.7014 6.44962 11.5212 6.37499 11.3333 6.37499H5.66667Z" fill="white"/>
</g>
<defs>
<clipPath id="clip0_1_176">
<rect width="17" height="17" fill="white"/>
</clipPath>
</defs>
</svg>
