<svg width="27" height="23" viewBox="0 0 27 23" fill="none" xmlns="http://www.w3.org/2000/svg">
<path d="M15.5505 22.9556C13.9988 22.9556 12.5246 22.6335 11.1613 22.056C11.7155 21.423 12.17 20.69 12.3584 20.1125C13.3448 20.5012 14.4865 20.7122 15.5394 20.7122C18.1995 20.7122 20.6933 19.535 22.3337 17.7026C21.17 16.381 18.7204 15.2149 15.5394 15.2149C14.5197 15.2149 13.5998 15.337 12.7574 15.5369C12.0148 12.4051 9.12192 9.99517 5.69704 9.99517C5.17611 9.99517 4.66626 10.0507 4.17857 10.1507C4.85468 4.46451 9.73153 0 15.5394 0C21.8017 0 27 5.19749 27 11.4833C27 17.7581 21.8128 22.9556 15.5505 22.9556ZM15.5394 13.2936C17.6786 13.3158 19.3522 11.4722 19.3522 9.09561C19.3522 6.85225 17.6675 4.97537 15.5394 4.97537C13.4002 4.97537 11.7044 6.85225 11.7155 9.09561C11.7266 11.4722 13.3892 13.2714 15.5394 13.2936ZM5.69704 23C2.57143 23 0 20.4235 0 17.2805C0 14.1487 2.57143 11.5722 5.69704 11.5722C8.83374 11.5722 11.4052 14.1487 11.4052 17.2805C11.4052 20.4013 8.80049 23 5.69704 23ZM5.69704 20.9121C6.16256 20.9121 6.46182 20.6012 6.46182 20.1569V18.0468H8.55665C9.01108 18.0468 9.31034 17.747 9.31034 17.2805C9.31034 16.8252 9.01108 16.5254 8.55665 16.5254H6.46182V14.4264C6.46182 13.971 6.16256 13.6712 5.69704 13.6712C5.24261 13.6712 4.94335 13.9821 4.94335 14.4264V16.5254H2.84852C2.39409 16.5254 2.09483 16.8252 2.09483 17.2805C2.09483 17.747 2.39409 18.0468 2.84852 18.0468H4.94335V20.1569C4.94335 20.6012 5.24261 20.9121 5.69704 20.9121Z" fill="white"/>
</svg>
