<svg width="14" height="7" viewBox="0 0 14 7" fill="none" xmlns="http://www.w3.org/2000/svg">
<path d="M1.53336 0.132984C1.53336 0.928166 0.88876 1.57275 0.0935974 1.57275V5.41212C0.88876 5.41212 1.53336 6.0567 1.53336 6.85188H12.0916C12.0916 6.0567 12.7362 5.41212 13.5314 5.41212V1.57275C12.7362 1.57275 12.0916 0.928166 12.0916 0.132984H1.53336ZM3.21309 0.852866H3.69301V1.33279H3.21309V0.852866ZM3.21309 1.81271H3.69301V2.29263H3.21309V1.81271ZM7.88107 2.0433L8.24101 3.12499H9.44175L8.48097 3.84488L8.84091 4.92657L7.88107 4.32573L6.92123 4.92657L7.28117 3.84488L6.32039 3.12499H7.52113L7.88107 2.0433ZM3.21309 2.77255H3.69301V3.25247H3.21309V2.77255ZM3.21309 3.73239H3.69301V4.21232H3.21309V3.73239ZM3.21309 4.69224H3.69301V5.17216H3.21309V4.69224ZM3.21309 5.65208H3.69301V6.132H3.21309V5.65208Z" fill="#2198C2"/>
</svg>
