<svg width="118" height="118" viewBox="0 0 118 118" fill="none" xmlns="http://www.w3.org/2000/svg">
<g clip-path="url(#clip0_1_111)">
<g filter="url(#filter0_i_1_111)">
<path d="M59 0C43.3558 0 28.3384 6.21989 17.2852 17.2805C6.22055 28.3456 0.00316617 43.3519 0 59C0 74.6414 6.22266 89.6588 17.2852 100.719C28.3384 111.78 43.3558 118 59 118C74.6442 118 89.6616 111.78 100.715 100.719C111.777 89.6588 118 74.6414 118 59C118 43.3585 111.777 28.3412 100.715 17.2805C89.6616 6.21989 74.6442 0 59 0Z" fill="url(#paint0_linear_1_111)" fill-opacity="0.69"/>
</g>
<path d="M103.62 66.1437C103.255 64.8641 102.573 63.8164 101.954 62.8531C101.56 62.2555 101.124 61.5664 100.878 60.8984C100.611 60.1391 100.252 59.4711 99.9078 58.8312C99.5844 58.2336 99.282 57.6781 99.1344 57.1578C98.8602 56.2367 99.0219 55.0906 99.2047 53.8812C99.2609 53.5227 99.3102 53.1711 99.3523 52.8195C99.5281 51.3992 99.7883 49.993 100.133 48.6359C100.182 48.4672 100.259 48.207 100.358 47.8836C101.483 44.2273 101.827 42.3852 100.885 41.1195C100.449 40.5219 99.7602 40.1844 99.0149 40.1844C97.9461 40.1844 97.025 40.8945 96.3359 41.5133C95.7242 42.0617 95.2602 42.6945 94.8523 43.257L94.5289 43.707C93.868 44.5859 93.2 45.4508 92.525 46.3156C91.632 47.4758 90.732 48.643 89.8461 49.8312C89.6352 50.1055 89.4242 50.4359 89.1852 50.7875C88.8336 51.3359 87.9969 52.6156 87.5469 52.7211C87.2797 52.7211 86.7594 52.468 86.3375 52.2641L86.0211 52.1164C83.5953 50.9633 80.9727 49.7398 78.2445 48.6078C77.6047 47.293 76.6203 46.1117 75.9172 44.8461C75.0102 43.2008 74.1242 40.1211 71.7477 40.6555C70.018 41.0492 68.2602 43.1797 67.0086 44.3398C66.8398 44.4945 66.6852 44.6352 66.5516 44.7687C61.3625 43.3555 56.1805 42.2516 50.8508 41.9633C50.443 40.6906 50.4992 39.2 50.6258 37.8359C50.7734 36.2469 51.1672 34.1445 48.8328 34.8477C47.307 35.3047 45.957 36.6406 44.7055 37.5898C42.7508 39.0805 41.1195 40.8453 39.5516 42.7297C37.9063 43.0531 36.2961 43.4539 34.7492 43.9672C29.2789 45.7812 24.4977 48.7414 20.532 52.7773C19.3719 53.9656 18.2891 55.2383 17.3117 56.5461C16.7984 57.2281 16.2992 57.9383 15.8281 58.6906L15.5258 59.1477C15.125 59.7523 14.675 60.4344 14.3727 61.3273C13.768 63.1133 14.8789 64.3086 15.4063 64.8852L15.7156 65.1664C15.7227 65.3281 15.7156 65.4477 15.7086 65.5531C15.6805 66.2 15.6945 66.8609 16.3414 67.8594C18.3453 70.932 21.8539 72.8375 24.4203 74.2297L24.9406 74.518C27.7813 76.0719 30.8328 77.2531 34.257 78.1531C36.1273 78.6383 37.9977 79.0391 39.8539 79.3625C40.4094 79.7984 40.9508 80.1641 41.0844 80.2484C43.2219 81.6828 45.957 83.2438 48.6148 83.2438C50.668 83.2438 49.0508 81.1836 48.4813 80.4313C48.432 80.368 48.3898 80.2977 48.3336 80.2273C49.0086 80.2484 49.7047 80.3047 50.3586 80.3047C51.9617 80.3047 53.5438 80.2344 55.0766 80.1008C59.4641 79.7141 64.0273 78.5961 68.6398 76.782C68.7594 76.7328 68.8719 76.6836 68.9844 76.6344C69.1672 76.6625 69.35 76.6906 69.4695 76.7117C71.0375 76.993 72.6477 77.6328 74.2578 77.5203C76.4937 77.3586 76.5359 76.2406 77.2883 74.4617C77.6469 73.6461 77.8648 72.8023 78.2023 71.9867C78.2445 71.8883 78.2938 71.7687 78.343 71.6633C80.3961 70.3062 82.4633 68.7734 84.5656 67.0367C85.2758 66.4602 86.0422 65.9469 86.8578 65.4055C87.6805 64.85 88.5383 64.2805 89.5016 63.5773C90.2891 63.5773 91.7586 64.6531 92.4617 65.1664L93.2563 65.743C94.6555 66.7625 96.1039 67.8172 97.7352 68.6539C98.4734 69.0336 99.8797 69.6734 101.068 69.6734C102.277 69.6734 102.924 69.0476 103.205 68.682C103.62 68.225 103.972 67.3953 103.62 66.1437Z" fill="#006CA2"/>
<path d="M84.7836 62.2203C83.9187 62.7898 83.0398 63.3805 82.182 64.0836C77.0563 68.2953 72.1836 71.2906 67.2828 73.2172C63.0148 74.8977 58.8102 75.9313 54.7812 76.2828C52.1586 76.5219 49.3883 76.5359 46.5406 76.3391C43.2852 76.107 39.9453 75.5727 36.5844 74.7711C37.0133 73.8219 37.3648 72.8305 37.632 71.825C37.9555 70.6227 38.068 69.0547 37.9555 67.6906C38.4547 67.8594 38.9398 68.0141 39.4391 68.1969C41.0141 68.7805 42.6172 69.1602 44.2133 69.1742C45.4086 69.1742 46.2664 68.0492 47.2016 66.9805C48.2211 65.8062 49.2969 64.6531 49.5078 62.2484C49.5641 61.6789 49.7539 60.8844 49.4938 60.4695C49.1914 59.9703 48.5023 60.0547 48.1227 59.9492C47.6164 59.8227 47.1242 59.7664 46.632 59.7031C45.1977 59.5203 43.8617 59.6258 42.4484 59.9352C40.8453 60.2797 39.207 60.7508 37.6531 61.5172C37.4492 61.6156 37.2523 61.7422 37.0484 61.8617C36.7391 60.5258 36.2328 59.225 35.7547 57.9453C35.382 56.9469 35.1359 55.9414 34.257 55.2383C33.7859 54.8586 32.5836 54.5141 32.3586 55.3367C32.2672 55.6813 32.4781 56.1805 32.7312 56.6516C32.9352 57.0312 33.1531 57.3898 33.2445 57.65C33.8914 59.5344 34.1937 61.5172 34.4891 63.4719C34.8477 65.7992 34.9391 67.7609 34.7773 70.1234C34.7 71.2414 34.3906 72.3172 34.0109 73.2594C33.9055 73.5125 33.7859 73.7586 33.6523 73.9977C31.1773 73.2453 28.9203 72.3242 26.8109 71.1711L26.2836 70.8828C23.9914 69.6383 21.1367 68.0844 19.5758 65.757C19.5898 65.5742 19.5969 65.3563 19.5828 65.082C20.082 64.3438 21.3477 64.618 22.0297 64.857C22.9086 65.1664 23.7453 65.757 24.6734 65.6727C25.5664 65.5953 25.8969 64.6953 25.4117 63.9781C24.9477 63.275 23.8156 62.9445 23.0914 62.5859C22.2617 62.1711 21.2773 61.9883 20.3844 61.7352C19.8219 61.5734 19.2312 61.5102 18.6406 61.4961C18.6828 61.4328 18.7109 61.3766 18.7531 61.3133C18.8727 61.1305 18.9992 60.9477 19.1047 60.7648C19.5125 60.1109 19.9625 59.4852 20.4055 58.8805C21.2844 57.7063 22.2477 56.5742 23.2953 55.5055C24.132 54.6547 25.018 53.8531 25.932 53.1148C26.5367 52.6648 28.0203 51.8281 30.2422 52.243C32.5977 52.6859 33.9898 53.818 38.1383 53.1641C42.2938 52.5102 42.7789 50.5625 46.8289 50.5625C50.8789 50.5625 52.2992 53.7266 57.2563 53.9656C61.6719 54.1695 62.0727 51.5398 66.3125 52.1727C70.5523 52.7984 70.9531 56.8836 76.6695 56.8836C82.3859 56.8836 83.1945 54.8445 89.1711 59.1969C89.15 59.3937 89.1008 59.5977 89.0445 59.8086C88.2852 59.9 87.582 60.1813 86.9914 60.6594C86.3164 61.1938 85.5711 61.693 84.7836 62.2203Z" fill="#40C0E7"/>
<mask id="mask0_1_111" style="mask-type:luminance" maskUnits="userSpaceOnUse" x="18" y="50" width="72" height="27">
<path d="M84.7836 62.2203C83.9187 62.7898 83.0398 63.3805 82.182 64.0836C77.0563 68.2953 72.1836 71.2906 67.2828 73.2172C63.0148 74.8977 58.8102 75.9313 54.7812 76.2828C52.1586 76.5219 49.3883 76.5359 46.5406 76.3391C43.2852 76.107 39.9453 75.5727 36.5844 74.7711C37.0133 73.8219 37.3648 72.8305 37.632 71.825C37.9555 70.6227 38.068 69.0547 37.9555 67.6906C38.4547 67.8594 38.9398 68.0141 39.4391 68.1969C41.0141 68.7805 42.6172 69.1602 44.2133 69.1742C45.4086 69.1742 46.2664 68.0492 47.2016 66.9805C48.2211 65.8062 49.2969 64.6531 49.5078 62.2484C49.5641 61.6789 49.7539 60.8844 49.4938 60.4695C49.1914 59.9703 48.5023 60.0547 48.1227 59.9492C47.6164 59.8227 47.1242 59.7664 46.632 59.7031C45.1977 59.5203 43.8617 59.6258 42.4484 59.9352C40.8453 60.2797 39.207 60.7508 37.6531 61.5172C37.4492 61.6156 37.2523 61.7422 37.0484 61.8617C36.7391 60.5258 36.2328 59.225 35.7547 57.9453C35.382 56.9469 35.1359 55.9414 34.257 55.2383C33.7859 54.8586 32.5836 54.5141 32.3586 55.3367C32.2672 55.6813 32.4781 56.1805 32.7312 56.6516C32.9352 57.0312 33.1531 57.3898 33.2445 57.65C33.8914 59.5344 34.1937 61.5172 34.4891 63.4719C34.8477 65.7992 34.9391 67.7609 34.7773 70.1234C34.7 71.2414 34.3906 72.3172 34.0109 73.2594C33.9055 73.5125 33.7859 73.7586 33.6523 73.9977C31.1773 73.2453 28.9203 72.3242 26.8109 71.1711L26.2836 70.8828C23.9914 69.6383 21.1367 68.0844 19.5758 65.757C19.5898 65.5742 19.5969 65.3563 19.5828 65.082C20.082 64.3438 21.3477 64.618 22.0297 64.857C22.9086 65.1664 23.7453 65.757 24.6734 65.6727C25.5664 65.5953 25.8969 64.6953 25.4117 63.9781C24.9477 63.275 23.8156 62.9445 23.0914 62.5859C22.2617 62.1711 21.2773 61.9883 20.3844 61.7352C19.8219 61.5734 19.2312 61.5102 18.6406 61.4961C18.6828 61.4328 18.7109 61.3766 18.7531 61.3133C18.8727 61.1305 18.9992 60.9477 19.1047 60.7648C19.5125 60.1109 19.9625 59.4852 20.4055 58.8805C21.2844 57.7063 22.2477 56.5742 23.2953 55.5055C24.132 54.6547 25.018 53.8531 25.932 53.1148C26.5367 52.6648 28.0203 51.8281 30.2422 52.243C32.5977 52.6859 33.9898 53.818 38.1383 53.1641C42.2938 52.5102 42.7789 50.5625 46.8289 50.5625C50.8789 50.5625 52.2992 53.7266 57.2563 53.9656C61.6719 54.1695 62.0727 51.5398 66.3125 52.1727C70.5523 52.7984 70.9531 56.8836 76.6695 56.8836C82.3859 56.8836 83.1945 54.8445 89.1711 59.1969C89.15 59.3937 89.1008 59.5977 89.0445 59.8086C88.2852 59.9 87.582 60.1813 86.9914 60.6594C86.3164 61.1938 85.5711 61.693 84.7836 62.2203Z" fill="white"/>
</mask>
<g mask="url(#mask0_1_111)">
<path d="M17.7406 62.9023C17.7406 62.9023 31.0086 67.2195 54.4437 66.7273C74.2719 66.3125 92.6234 57.4953 92.6234 57.4953L91.9695 61.1023L88.2148 62.143C88.2148 62.143 72.8375 77.7805 54.9641 78.2094C48.5867 78.357 39.3477 77.6469 33.6383 75.8539C23.3234 72.5914 18.2961 67.2336 18.2961 67.2336L17.7406 62.9023Z" fill="white"/>
</g>
<path d="M26.1641 56.8625C24.8633 56.9328 23.8438 58.1844 23.9141 59.6399C23.9844 61.1024 25.0953 62.2203 26.3961 62.15C27.7109 62.0727 28.7305 60.8352 28.6602 59.3727C28.5828 57.9172 27.4719 56.7852 26.1641 56.8625Z" fill="#2F2F2F"/>
</g>
<defs>
<filter id="filter0_i_1_111" x="0" y="0" width="118" height="118" filterUnits="userSpaceOnUse" color-interpolation-filters="sRGB">
<feFlood flood-opacity="0" result="BackgroundImageFix"/>
<feBlend mode="normal" in="SourceGraphic" in2="BackgroundImageFix" result="shape"/>
<feColorMatrix in="SourceAlpha" type="matrix" values="0 0 0 0 0 0 0 0 0 0 0 0 0 0 0 0 0 0 127 0" result="hardAlpha"/>
<feOffset/>
<feGaussianBlur stdDeviation="7.5"/>
<feComposite in2="hardAlpha" operator="arithmetic" k2="-1" k3="1"/>
<feColorMatrix type="matrix" values="0 0 0 0 0 0 0 0 0 0 0 0 0 0 0 0 0 0 0.25 0"/>
<feBlend mode="normal" in2="shape" result="effect1_innerShadow_1_111"/>
</filter>
<linearGradient id="paint0_linear_1_111" x1="59" y1="0" x2="59" y2="118" gradientUnits="userSpaceOnUse">
<stop stop-color="#38AFE3"/>
<stop offset="1" stop-color="#1E94D3"/>
</linearGradient>
<clipPath id="clip0_1_111">
<rect width="118" height="118" fill="white"/>
</clipPath>
</defs>
</svg>
