<svg width="27" height="22" viewBox="0 0 27 22" fill="none" xmlns="http://www.w3.org/2000/svg">
<path d="M10.0988 20.0293L7.44145 12.5154L7.39563 12.4238L22.1027 3.30627L22.2402 3.53536C18.6054 9.23187 11.4183 20.7165 11.0151 20.7165C10.6119 20.7165 10.3279 20.5791 10.0988 20.0293Z" fill="#C9DAEB"/>
<path d="M10.4708 20.1077L10.8776 14.3022L16.1007 16.1807L11.3933 20.5491C11.0279 20.8882 10.436 20.605 10.4708 20.1077Z" fill="#A7C6D8"/>
<path d="M1.44625 10.5503L7.44137 12.5153L21.7687 3.71864C21.8625 3.66105 21.9595 3.78744 21.8797 3.8632L10.8776 14.3022L20.5317 21.084C21.2196 21.5672 22.1782 21.2051 22.3747 20.3877L26.9766 1.24523C27.1649 0.462034 26.4039 -0.214693 25.648 0.0638322L1.41796 8.99277C0.684565 9.26303 0.703524 10.3068 1.44625 10.5503Z" fill="white"/>
</svg>
